<svg xmlns="http://www.w3.org/2000/svg" xmlns:xlink="http://www.w3.org/1999/xlink" version="1.1" class="marks" width="539" height="364" viewBox="0 0 539 364"><rect width="539" height="364" fill="#202025"/><g fill="none" stroke-miterlimit="10" transform="translate(43,27)"><g class="mark-group role-frame root" role="graphics-object" aria-roledescription="group mark container"><g transform="translate(0,0)"><path class="background" aria-hidden="true" d="M0,0h400v300h-400Z" stroke="#ddd" stroke-width="0"/><g><g class="mark-group role-axis" role="graphics-symbol" aria-roledescription="axis" aria-label="X-axis titled 'round' for a linear scale with values from 0 to 300"><g transform="translate(0.5,300.5)"><path class="background" aria-hidden="true" d="M0,0h0v0h0Z" pointer-events="none"/><g><g class="mark-rule role-axis-tick" pointer-events="none"><line transform="translate(0,0)" x2="0" y2="5" stroke="#888" stroke-width="1" opacity="1"/><line transform="translate(27,0)" x2="0" y2="5" stroke="#888" stroke-width="1" opacity="1"/><line transform="translate(53,0)" x2="0" y2="5" stroke="#888" stroke-width="1" opacity="1"/><line transform="translate(80,0)" x2="0" y2="5" stroke="#888" stroke-width="1" opacity="1"/><line transform="translate(107,0)" x2="0" y2="5" stroke="#888" stroke-width="1" opacity="1"/><line transform="translate(133,0)" x2="0" y2="5" stroke="#888" stroke-width="1" opacity="1"/><line transform="translate(160,0)" x2="0" y2="5" stroke="#888" stroke-width="1" opacity="1"/><line transform="translate(187,0)" x2="0" y2="5" stroke="#888" stroke-width="1" opacity="1"/><line transform="translate(213,0)" x2="0" y2="5" stroke="#888" stroke-width="1" opacity="1"/><line transform="translate(240,0)" x2="0" y2="5" stroke="#888" stroke-width="1" opacity="1"/><line transform="translate(267,0)" x2="0" y2="5" stroke="#888" stroke-width="1" opacity="1"/><line transform="translate(293,0)" x2="0" y2="5" stroke="#888" stroke-width="1" opacity="1"/><line transform="translate(320,0)" x2="0" y2="5" stroke="#888" stroke-width="1" opacity="1"/><line transform="translate(347,0)" x2="0" y2="5" stroke="#888" stroke-width="1" opacity="1"/><line transform="translate(373,0)" x2="0" y2="5" stroke="#888" stroke-width="1" opacity="1"/><line transform="translate(400,0)" x2="0" y2="5" stroke="#888" stroke-width="1" opacity="1"/></g><g class="mark-text role-axis-label" pointer-events="none"><text text-anchor="start" transform="translate(0,15)" font-family="sans-serif" font-size="10px" fill="white" opacity="1">0</text><text text-anchor="middle" transform="translate(26.666666666666668,15)" font-family="sans-serif" font-size="10px" fill="white" opacity="0">20</text><text text-anchor="middle" transform="translate(53.333333333333336,15)" font-family="sans-serif" font-size="10px" fill="white" opacity="1">40</text><text text-anchor="middle" transform="translate(80,15)" font-family="sans-serif" font-size="10px" fill="white" opacity="0">60</text><text text-anchor="middle" transform="translate(106.66666666666667,15)" font-family="sans-serif" font-size="10px" fill="white" opacity="1">80</text><text text-anchor="middle" transform="translate(133.33333333333331,15)" font-family="sans-serif" font-size="10px" fill="white" opacity="0">100</text><text text-anchor="middle" transform="translate(160,15)" font-family="sans-serif" font-size="10px" fill="white" opacity="1">120</text><text text-anchor="middle" transform="translate(186.66666666666666,15)" font-family="sans-serif" font-size="10px" fill="white" opacity="0">140</text><text text-anchor="middle" transform="translate(213.33333333333334,15)" font-family="sans-serif" font-size="10px" fill="white" opacity="1">160</text><text text-anchor="middle" transform="translate(240,15)" font-family="sans-serif" font-size="10px" fill="white" opacity="0">180</text><text text-anchor="middle" transform="translate(266.66666666666663,15)" font-family="sans-serif" font-size="10px" fill="white" opacity="1">200</text><text text-anchor="middle" transform="translate(293.3333333333333,15)" font-family="sans-serif" font-size="10px" fill="white" opacity="0">220</text><text text-anchor="middle" transform="translate(320,15)" font-family="sans-serif" font-size="10px" fill="white" opacity="1">240</text><text text-anchor="middle" transform="translate(346.6666666666667,15)" font-family="sans-serif" font-size="10px" fill="white" opacity="0">260</text><text text-anchor="middle" transform="translate(373.3333333333333,15)" font-family="sans-serif" font-size="10px" fill="white" opacity="1">280</text><text text-anchor="end" transform="translate(400,15)" font-family="sans-serif" font-size="10px" fill="white" opacity="0">300</text></g><g class="mark-rule role-axis-domain" pointer-events="none"><line transform="translate(0,0)" x2="400" y2="0" stroke="#888" stroke-width="1" opacity="1"/></g><g class="mark-text role-axis-title" pointer-events="none"><text text-anchor="middle" transform="translate(200,30)" font-family="sans-serif" font-size="11px" font-weight="bold" fill="white" opacity="1">round</text></g></g><path class="foreground" aria-hidden="true" d="" pointer-events="none" display="none"/></g></g><g class="mark-group role-axis" role="graphics-symbol" aria-roledescription="axis" aria-label="Y-axis titled 'pseudo-regret' for a linear scale with values from 0.0 to 3.0"><g transform="translate(0.5,0.5)"><path class="background" aria-hidden="true" d="M0,0h0v0h0Z" pointer-events="none"/><g><g class="mark-rule role-axis-tick" pointer-events="none"><line transform="translate(0,300)" x2="-5" y2="0" stroke="#888" stroke-width="1" opacity="1"/><line transform="translate(0,250)" x2="-5" y2="0" stroke="#888" stroke-width="1" opacity="1"/><line transform="translate(0,200)" x2="-5" y2="0" stroke="#888" stroke-width="1" opacity="1"/><line transform="translate(0,150)" x2="-5" y2="0" stroke="#888" stroke-width="1" opacity="1"/><line transform="translate(0,100)" x2="-5" y2="0" stroke="#888" stroke-width="1" opacity="1"/><line transform="translate(0,50)" x2="-5" y2="0" stroke="#888" stroke-width="1" opacity="1"/><line transform="translate(0,0)" x2="-5" y2="0" stroke="#888" stroke-width="1" opacity="1"/></g><g class="mark-text role-axis-label" pointer-events="none"><text text-anchor="end" transform="translate(-7,303)" font-family="sans-serif" font-size="10px" fill="white" opacity="1">0.0</text><text text-anchor="end" transform="translate(-7,253)" font-family="sans-serif" font-size="10px" fill="white" opacity="1">0.5</text><text text-anchor="end" transform="translate(-7,203.00000000000003)" font-family="sans-serif" font-size="10px" fill="white" opacity="1">1.0</text><text text-anchor="end" transform="translate(-7,153)" font-family="sans-serif" font-size="10px" fill="white" opacity="1">1.5</text><text text-anchor="end" transform="translate(-7,103.00000000000001)" font-family="sans-serif" font-size="10px" fill="white" opacity="1">2.0</text><text text-anchor="end" transform="translate(-7,52.999999999999986)" font-family="sans-serif" font-size="10px" fill="white" opacity="1">2.5</text><text text-anchor="end" transform="translate(-7,3)" font-family="sans-serif" font-size="10px" fill="white" opacity="1">3.0</text></g><g class="mark-rule role-axis-domain" pointer-events="none"><line transform="translate(0,300)" x2="0" y2="-300" stroke="#888" stroke-width="1" opacity="1"/></g><g class="mark-text role-axis-title" pointer-events="none"><text text-anchor="middle" transform="translate(-26.875,150) rotate(-90) translate(0,-2)" font-family="sans-serif" font-size="11px" font-weight="bold" fill="white" opacity="1">pseudo-regret</text></g></g><path class="foreground" aria-hidden="true" d="" pointer-events="none" display="none"/></g></g><g class="mark-group role-scope pathgroup" role="graphics-object" aria-roledescription="group mark container"><g transform="translate(0,0)"><path class="background" aria-hidden="true" d="M0,0h400v300h-400Z"/><g><g class="mark-line role-mark marks" role="graphics-object" aria-roledescription="line mark container"><path aria-label="legend: regret; round: 0; pseudo-regret: 0.065" role="graphics-symbol" aria-roledescription="line mark" d="M0,293.5L1.333,293.5L2.667,287L4,287L5.333,287L6.667,278.5L8,270L9.333,270L10.667,261.5L12,255L13.333,255L14.667,248.5L16,240L17.333,231.5L18.667,231.5L20,231.5L21.333,223L22.667,214.5L24,208L25.333,201.5L26.667,195L28,195L29.333,195L30.667,186.5L32,186.5L33.333,178L34.667,178L36,178L37.333,178L38.667,169.5L40,169.5L41.333,163L42.667,154.5L44,154.5L45.333,154.5L46.667,146L48,139.5L49.333,139.5L50.667,139.5L52,139.5L53.333,139.5L54.667,139.5L56,139.5L57.333,133L58.667,133L60,126.5L61.333,126.5L62.667,120L64,120L65.333,120L66.667,111.5L68,111.5L69.333,103L70.667,94.5L72,94.5L73.333,94.5L74.667,94.5L76,94.5L77.333,94.5L78.667,94.5L80,86L81.333,86L82.667,86L84,86L85.333,79.5L86.667,79.5L88,79.5L89.333,79.5L90.667,79.5L92,79.5L93.333,79.5L94.667,79.5L96,79.5L97.333,79.5L98.667,79.5L100,79.5L101.333,79.5L102.667,79.5L104,79.5L105.333,79.5L106.667,79.5L108,79.5L109.333,79.5L110.667,79.5L112,79.5L113.333,79.5L114.667,79.5L116,79.5L117.333,79.5L118.667,79.5L120,79.5L121.333,79.5L122.667,79.5L124,79.5L125.333,71L126.667,71L128,71L129.333,71L130.667,71L132,71L133.333,71L134.667,71L136,71L137.333,71L138.667,71L140,71L141.333,71L142.667,71L144,71L145.333,71L146.667,71L148,71L149.333,71L150.667,71L152,71L153.333,71L154.667,71L156,71L157.333,71L158.667,71L160,71L161.333,71L162.667,71L164,62.5L165.333,62.5L166.667,62.5L168,62.5L169.333,62.5L170.667,62.5L172,54L173.333,54L174.667,54L176,54L177.333,54L178.667,54L180,54L181.333,54L182.667,54L184,54L185.333,54L186.667,54L188,54L189.333,54L190.667,54L192,54L193.333,54L194.667,54L196,54L197.333,54L198.667,54L200,54L201.333,54L202.667,54L204,54L205.333,54L206.667,54L208,54L209.333,54L210.667,54L212,54L213.333,54L214.667,54L216,54L217.333,54L218.667,54L220,54L221.333,54L222.667,54L224,54L225.333,54L226.667,54L228,54L229.333,54L230.667,54L232,54L233.333,54L234.667,54L236,54L237.333,54L238.667,54L240,54L241.333,54L242.667,54L244,54L245.333,54L246.667,54L248,54L249.333,54L250.667,54L252,54L253.333,54L254.667,54L256,54L257.333,54L258.667,54L260,54L261.333,54L262.667,54L264,54L265.333,54L266.667,54L268,54L269.333,54L270.667,54L272,54L273.333,54L274.667,54L276,54L277.333,54L278.667,54L280,54L281.333,54L282.667,54L284,54L285.333,54L286.667,54L288,54L289.333,54L290.667,54L292,54L293.333,54L294.667,54L296,54L297.333,54L298.667,54L300,54L301.333,54L302.667,54L304,54L305.333,54L306.667,54L308,54L309.333,54L310.667,54L312,54L313.333,54L314.667,54L316,54L317.333,54L318.667,54L320,54L321.333,54L322.667,54L324,54L325.333,54L326.667,54L328,54L329.333,54L330.667,54L332,54L333.333,54L334.667,54L336,54L337.333,54L338.667,54L340,54L341.333,54L342.667,54L344,54L345.333,54L346.667,54L348,54L349.333,54L350.667,54L352,54L353.333,54L354.667,54L356,54L357.333,54L358.667,54L360,54L361.333,54L362.667,54L364,54L365.333,54L366.667,54L368,54L369.333,54L370.667,54L372,54L373.333,54L374.667,54L376,54L377.333,54L378.667,54L380,54L381.333,54L382.667,54L384,54L385.333,54L386.667,54L388,54L389.333,54L390.667,54L392,54L393.333,54L394.667,54L396,54L397.333,54L398.667,54" stroke="#f58518" stroke-width="2"/></g></g><path class="foreground" aria-hidden="true" d="" display="none"/></g><g transform="translate(0,0)"><path class="background" aria-hidden="true" d="M0,0h400v300h-400Z"/><g><g class="mark-line role-mark marks" role="graphics-object" aria-roledescription="line mark container"><path aria-label="legend: max regret; round: 0; pseudo-regret: 0.085" role="graphics-symbol" aria-roledescription="line mark" d="M0,291.5L1.333,283L2.667,274.5L4,266L5.333,257.5L6.667,249L8,240.5L9.333,232L10.667,223.5L12,215L13.333,206.5L14.667,198L16,189.5L17.333,181L18.667,172.5L20,164L21.333,155.5L22.667,147L24,138.5L25.333,130L26.667,121.5L28,113L29.333,104.5L30.667,96L32,87.5L33.333,79L34.667,70.5L36,62L37.333,53.5L38.667,45L40,36.5L41.333,28L42.667,19.5L44,11L45.333,2.5" stroke="#4c78a8" stroke-width="2"/></g></g><path class="foreground" aria-hidden="true" d="" display="none"/></g></g><g class="mark-group role-legend" role="graphics-symbol" aria-roledescription="legend" aria-label="Symbol legend titled 'legend' for stroke color with 2 values: max regret, regret"><g transform="translate(419,0)"><path class="background" aria-hidden="true" d="M0,0h72v40h-72Z" pointer-events="none"/><g><g class="mark-group role-legend-entry"><g transform="translate(0,16)"><path class="background" aria-hidden="true" d="M0,0h0v0h0Z" pointer-events="none"/><g><g class="mark-group role-scope" role="graphics-object" aria-roledescription="group mark container"><g transform="translate(0,0)"><path class="background" aria-hidden="true" d="M0,0h71.3499984741211v11h-71.3499984741211Z" pointer-events="none" opacity="1"/><g><g class="mark-symbol role-legend-symbol" pointer-events="none"><path transform="translate(6,6)" d="M-5,0L5,0" stroke="#4c78a8" stroke-width="1.5" opacity="1"/></g><g class="mark-text role-legend-label" pointer-events="none"><text text-anchor="start" transform="translate(16,9)" font-family="sans-serif" font-size="10px" fill="white" opacity="1">max regret</text></g></g><path class="foreground" aria-hidden="true" d="" pointer-events="none" display="none"/></g><g transform="translate(0,13)"><path class="background" aria-hidden="true" d="M0,0h71.3499984741211v11h-71.3499984741211Z" pointer-events="none" opacity="1"/><g><g class="mark-symbol role-legend-symbol" pointer-events="none"><path transform="translate(6,6)" d="M-5,0L5,0" stroke="#f58518" stroke-width="1.5" opacity="1"/></g><g class="mark-text role-legend-label" pointer-events="none"><text text-anchor="start" transform="translate(16,9)" font-family="sans-serif" font-size="10px" fill="white" opacity="1">regret</text></g></g><path class="foreground" aria-hidden="true" d="" pointer-events="none" display="none"/></g></g></g><path class="foreground" aria-hidden="true" d="" pointer-events="none" display="none"/></g></g><g class="mark-text role-legend-title" pointer-events="none"><text text-anchor="start" transform="translate(0,9)" font-family="sans-serif" font-size="11px" font-weight="bold" fill="white" opacity="1">legend</text></g></g><path class="foreground" aria-hidden="true" d="" pointer-events="none" display="none"/></g></g><g class="mark-group role-title"><g transform="translate(200,-22)"><path class="background" aria-hidden="true" d="M0,0h0v0h0Z" pointer-events="none"/><g><g class="mark-text role-title-text" role="graphics-symbol" aria-roledescription="title" aria-label="Title text 'Regret'" pointer-events="none"><text text-anchor="middle" transform="translate(0,10)" font-family="sans-serif" font-size="13px" font-weight="bold" fill="white" opacity="1">Regret</text></g></g><path class="foreground" aria-hidden="true" d="" pointer-events="none" display="none"/></g></g></g><path class="foreground" aria-hidden="true" d="" display="none"/></g></g></g></svg>