<svg xmlns="http://www.w3.org/2000/svg" xmlns:xlink="http://www.w3.org/1999/xlink" version="1.1" class="marks" width="441" height="420" viewBox="0 0 441 420"><rect width="441" height="420" fill="#202025"/><g fill="none" stroke-miterlimit="10" transform="translate(21,7)"><g class="mark-group role-frame root" role="graphics-object" aria-roledescription="group mark container"><g transform="translate(0,0)"><path class="background" aria-hidden="true" d="M0,0h400v400h-400Z" stroke="#ddd" stroke-width="0"/><g><g class="mark-line role-mark layer_0_layer_0_marks" role="graphics-object" aria-roledescription="line mark container"><path aria-label="order: 1; x: 1; y: 0" role="graphics-symbol" aria-roledescription="line mark" d="M400,400L200,15.1L0,400L400,400" stroke="#4c78a8" stroke-width="2"/></g><g class="mark-symbol role-mark layer_0_layer_1_marks" role="graphics-object" aria-roledescription="symbol mark container"><path aria-label="order: 1; x: 1; y: 0" role="graphics-symbol" aria-roledescription="point" transform="translate(400,400)" d="M2.739,0A2.739,2.739,0,1,1,-2.739,0A2.739,2.739,0,1,1,2.739,0" fill="#4c78a8" stroke-width="2" opacity="1"/><path aria-label="order: 2; x: 0.5; y: 0.866025403784" role="graphics-symbol" aria-roledescription="point" transform="translate(200,15.099820540249542)" d="M2.739,0A2.739,2.739,0,1,1,-2.739,0A2.739,2.739,0,1,1,2.739,0" fill="#4c78a8" stroke-width="2" opacity="1"/><path aria-label="order: 3; x: 0; y: 0" role="graphics-symbol" aria-roledescription="point" transform="translate(0,400)" d="M2.739,0A2.739,2.739,0,1,1,-2.739,0A2.739,2.739,0,1,1,2.739,0" fill="#4c78a8" stroke-width="2" opacity="1"/><path aria-label="order: 4; x: 1; y: 0" role="graphics-symbol" aria-roledescription="point" transform="translate(400,400)" d="M2.739,0A2.739,2.739,0,1,1,-2.739,0A2.739,2.739,0,1,1,2.739,0" fill="#4c78a8" stroke-width="2" opacity="1"/></g><g class="mark-line role-mark layer_1_marks" role="graphics-object" aria-roledescription="line mark container"><path aria-label="order: 0; x: 0.229351547296; y: 0.160075233459" role="graphics-symbol" aria-roledescription="line mark" d="M91.741,328.855L92.66,328.142L93.589,327.422L93.589,327.422L93.589,327.422L94.528,326.694L93.585,327.425L93.585,327.425L90.599,326.718L91.711,323.551L92.81,320.42L92.81,320.42L89.826,319.647L89.826,319.647L89.826,319.647L89.826,319.647L89.826,319.647L90.726,318.841L90.726,318.841L89.821,319.651L90.722,318.845L90.722,318.845L90.722,318.845L90.722,318.845L91.631,318.032L91.631,318.032L92.55,317.21L92.55,317.21L93.639,314.149L92.588,317.102L91.665,317.929L92.584,317.106L91.66,317.933L90.746,318.752L89.668,321.747L90.567,320.962L89.664,321.751L90.563,320.966L90.563,320.966L91.673,317.864L91.673,317.864L88.683,317.067L89.572,316.236L89.572,316.236L88.679,317.071L87.794,317.898L88.675,317.075L88.675,317.075L88.675,317.075L89.564,316.244L88.474,319.216L89.361,318.406L90.256,317.588L89.356,318.41L90.252,317.592L90.252,317.592L91.364,314.527L92.464,311.495L93.552,308.497L93.552,308.497L92.619,309.41L92.619,309.41L92.619,309.41L93.704,306.434L92.77,307.367L93.699,306.439L94.638,305.501L94.638,305.501L93.596,308.375L93.596,308.375L96.764,309.322L96.764,309.322L96.764,309.322L95.743,312.231L96.703,311.352L96.703,311.352L96.703,311.352L95.738,312.236L98.873,313.14L99.863,312.27L100.877,309.263L99.87,310.168L98.88,313.085L97.894,313.952L98.927,310.927L99.919,310.034L103.003,310.959L101.975,311.848L101.007,314.78L102.009,311.746L105.066,312.651L104.128,315.591L105.171,314.745L106.225,313.89L106.225,313.89L107.29,313.028L108.228,310.012L109.312,309.111L110.229,306.138L109.129,307.075L108.039,308.003L109.122,307.081L108.032,308.008L108.032,308.008L106.954,308.927L107.895,305.956L108.826,303.017L107.923,305.868L109.004,304.925L106.162,303.996L106.162,303.996L106.162,303.996L106.162,303.996L106.162,303.996L105.102,304.954L106.061,302.026L107.123,301.045L107.123,301.045L107.123,301.045L107.123,301.045L108.196,300.054L108.196,300.054L108.196,300.054L108.196,300.054L108.196,300.054L111.19,301.079L114.146,302.091L114.146,302.091L115.289,301.111L116.144,298.224L116.144,298.224L116.144,298.224L113.367,297.228L112.235,298.254L111.114,299.27L112.227,298.261L113.351,297.242L114.486,296.213L113.343,297.25L114.478,296.221L114.478,296.221L115.624,295.182L115.624,295.182L118.533,296.254L118.533,296.254L117.725,299.041L120.606,300.072L120.606,300.072L119.402,301.07L119.402,301.07L120.597,300.079L123.445,301.098L122.687,303.93L123.468,301.013L123.468,301.013L123.468,301.013L124.704,300.022L125.952,299.022L123.258,298.029L123.258,298.029L126.077,299.068L123.385,298.076L126.202,299.114L125.471,301.928L126.727,300.946L124.039,299.972L125.281,298.971L125.281,298.971L125.281,298.971L126.535,297.959L127.801,296.938L129.08,295.907L128.377,298.691L128.377,298.691L131.138,299.721L131.138,299.721L129.828,300.722L130.536,297.84L130.536,297.84L130.536,297.84L130.536,297.84L130.536,297.84L130.536,297.84L131.842,296.817L129.203,295.801L129.916,292.971L128.618,294.04L129.905,292.98L129.905,292.98L130.612,290.179L129.307,291.277L130.6,290.189L129.912,292.919L129.912,292.919L129.912,292.919L130.618,290.119L131.925,289.019L133.245,287.909L135.957,289.048L136.602,286.289L137.968,285.152L137.968,285.152L137.968,285.152L137.968,285.152L140.629,286.318L140.629,286.318L141.227,283.587L139.815,284.751L139.815,284.751L141.213,283.599L141.805,280.896L143.222,279.706L144.654,278.503L144.654,278.503L145.211,275.854L144.666,278.447L144.666,278.447L144.666,278.447L145.223,275.798L145.773,273.177L145.773,273.177L144.315,274.446L144.315,274.446L144.874,271.839L144.874,271.839L146.322,270.558L144.858,271.853L145.412,269.273L146.865,267.967L146.865,267.967L146.865,267.967L149.436,269.308L150.929,268.002L149.418,269.323L150.911,268.018L150.911,268.018L150.911,268.018L152.418,266.7L152.418,266.7L151.945,269.204L151.466,271.733L152.979,270.452L152.979,270.452L153.452,267.886L155.951,269.225L156.393,266.672L155.959,269.177L157.517,267.87L159.972,269.208L159.972,269.208L159.573,271.737L159.573,271.737L159.98,269.158L161.577,267.852L161.963,265.313L163.579,263.968L163.945,261.47L164.307,258.996L164.665,256.549L165.02,254.126L166.665,252.671L166.665,252.671L166.665,252.671L168.327,251.202L168.327,251.202L168.327,251.202L166.639,252.694L164.968,254.171L166.614,252.717L164.308,251.262L165.947,249.779L163.636,248.296L166.032,249.833L166.032,249.833L168.402,251.354L168.087,253.709L169.763,252.251L169.763,252.251L172.091,253.745L173.807,252.287L173.546,254.652L173.282,257.04L173.55,254.612L173.55,254.612L175.28,253.163L175.28,253.163L175.033,255.536L176.778,254.096L176.778,254.096L178.539,252.642L178.754,250.26L178.754,250.26L180.989,251.772L181.179,249.398L182.983,247.899L182.814,250.22L182.814,250.22L182.814,250.22L182.642,252.565L182.816,250.183L180.664,248.698L180.664,248.698L180.858,246.356L182.659,244.827L182.659,244.827L182.833,242.524L183.005,240.245L183.005,240.245L183.005,240.245L183.175,237.989L183.343,235.756L183.343,235.756L183.177,237.958L183.177,237.958L183.177,237.958L185.367,239.595L187.211,238L187.339,235.767L189.202,234.134L189.31,231.94L191.191,230.27L191.103,232.419L191.193,230.242L193.092,228.556L193.161,226.419L193.229,224.304L195.317,226.077L197.255,224.351L197.283,222.257L197.31,220.184L197.31,220.184L195.302,218.402L193.333,220.233L193.4,218.18L195.319,216.376L195.272,218.388L195.272,218.388L197.209,216.587L197.237,214.571L197.237,214.571L197.237,214.571L197.209,216.565L197.209,216.565L199.164,214.746L199.172,212.749L199.172,212.749L201.145,210.894L201.145,210.894L201.145,210.894L201.134,208.936L201.145,210.874L201.134,208.916L201.134,208.916L201.123,206.978L201.111,205.059L201.111,205.059L201.1,203.16L203.09,201.213L203.09,201.213L203.121,203.074L203.089,201.195L203.058,199.335L203.028,197.493L203.028,197.493L202.998,195.67L203.028,197.477L202.997,195.654L202.967,193.85L202.967,193.85L202.938,192.063L202.908,190.295L202.938,192.048L202.938,192.048L202.967,193.819L202.937,192.033L202.908,190.265L200.853,192.389L200.853,192.389L200.862,194.163L200.87,195.955L200.879,197.765L200.879,197.765L200.87,195.939L200.879,197.748L200.888,199.576L200.879,197.732L200.879,197.732L200.888,199.559L200.896,201.404L200.905,203.268L200.896,201.386L200.896,201.386L200.887,199.524L202.9,201.55L200.848,203.557L200.848,203.557L200.848,203.557L200.856,205.442L200.856,205.442L202.868,207.407L204.858,209.351L206.826,211.274L206.826,211.274L208.872,209.408L208.872,209.408L208.783,207.465L210.711,209.406L210.711,209.406L210.711,209.406L210.818,211.349L210.71,209.386L210.71,209.386L210.817,211.329L212.9,209.465L212.771,207.521L212.899,209.445L215.001,207.564L214.851,205.639L214.702,203.734L216.57,205.712L218.417,207.669L218.417,207.669L218.417,207.669L218.233,205.743L218.233,205.743L220.063,207.699L220.264,209.625L220.467,211.57L220.467,211.57L222.273,213.466L222.273,213.466L222.273,213.466L222.05,211.482L222.05,211.482L223.841,213.379L224.079,215.361L225.848,217.218L226.106,219.238L228.333,217.457L228.05,215.432L230.293,213.617L230.293,213.617L232.556,211.785L232.231,209.818L233.917,211.729L234.256,213.695L233.913,211.709L233.574,209.742L233.238,207.796L234.914,209.727L237.216,207.863L237.216,207.863L237.588,209.79L237.212,207.843L236.84,205.916L238.479,207.866L238.479,207.866L238.864,209.793L238.475,207.846L240.098,209.776L238.505,207.882L238.89,209.809L240.508,211.719L240.913,213.685L241.322,215.67L243.683,213.867L244.12,215.854L245.684,217.702L246.141,219.726L246.141,219.726L246.141,219.726L247.684,221.535L247.207,219.469L246.734,217.424L246.734,217.424L248.272,219.255L246.759,217.453L248.296,219.284L247.813,217.241L249.339,219.074L249.833,221.113L251.338,222.906L252.829,224.682L253.356,226.776L253.356,226.776L253.889,228.89L255.353,230.605L252.735,232.342L253.261,234.511L252.728,232.313L253.254,234.482L251.79,232.83L252.307,235.004L252.829,237.199L254.303,238.83L254.303,238.83L255.763,240.445L258.263,238.885L258.263,238.885L258.263,238.885L258.845,241.119L260.258,242.709L260.258,242.709L261.657,244.284L261.657,244.284L261.657,244.284L260.275,242.729L261.674,244.303L260.292,242.748L261.691,244.322L261.073,242.025L261.073,242.025L260.461,239.751L261.064,241.993L261.673,244.257L261.055,241.96L261.055,241.96L262.446,243.542L263.069,245.821L263.698,248.122L263.06,245.786L263.06,245.786L264.43,247.329L265.787,248.857L265.787,248.857L266.443,251.188L267.105,253.542L267.105,253.542L268.435,255.007L271.051,253.594L272.341,255.059L273.618,256.508L270.802,257.985L272.095,259.405L272.813,261.839L275.47,260.493L278.148,259.137L276.929,257.728L277.695,260.146L278.918,261.544L278.918,261.544L280.129,262.928L281.327,264.298L280.139,262.94L280.139,262.94L281.337,264.31L282.147,266.792L284.882,265.501L285.727,267.994L285.727,267.994L286.869,269.313L287.999,270.619L287.115,268.051L287.115,268.051L285.985,266.731L287.125,268.062L287.992,270.58L289.111,271.873L288.215,269.293L288.215,269.293L287.096,267.984L287.096,267.984L287.963,270.501L287.963,270.501L287.963,270.501L287.963,270.501L289.083,271.795L289.083,271.795L287.972,270.512L287.088,267.945L287.088,267.945L287.955,270.462L288.831,273.003L288.831,273.003L287.718,271.732L287.718,271.732L288.591,274.285L287.7,271.68L286.576,270.396L285.706,267.83L286.848,269.151L285.975,266.599L285.975,266.599L283.015,267.98L284.184,269.299L285.341,270.605L286.487,271.898L285.618,269.317L285.618,269.317L288.381,268.053L288.381,268.053L287.493,265.512L287.493,265.512L286.614,262.997L287.477,265.466L288.348,267.959L289.227,270.475L290.115,273.017L291.012,275.582L287.998,276.871L287.998,276.871L289.117,278.101L290.224,279.318L289.125,278.11L286.14,279.369L287.277,280.574L287.277,280.574L290.066,279.414L290.066,279.414L291.164,280.619L291.164,280.619L292.251,281.811L293.168,284.461L292.23,281.75L293.306,282.931L294.372,284.1L295.426,285.257L294.379,284.108L293.429,281.4L292.362,280.212L292.362,280.212L291.284,279.013L291.284,279.013L292.37,280.221L293.288,282.856L293.288,282.856L292.349,280.162L293.267,282.796L294.333,283.967L297.177,282.845L298.204,284.015L297.216,281.308L298.242,282.493L299.258,283.666L298.259,280.963L299.275,282.152L299.275,282.152L296.158,283.379L297.195,284.544L296.165,283.387L299.021,282.263L299.021,282.263L298.025,279.574L298.025,279.574L298.025,279.574L298.999,282.203L297.987,281.023L299.006,282.211L297.994,281.031L298.968,283.674L301.843,282.556L302.855,285.213L302.855,285.213L302.855,285.213L301.881,284.063L300.899,282.902L300.899,282.902L300.899,282.902L300.899,282.902L301.888,284.071L300.905,282.91L300.905,282.91L297.766,284.131L296.742,282.971L295.708,281.798L296.75,282.979L295.716,281.807L295.716,281.807L294.671,280.623L295.723,281.815L298.574,280.676L297.582,278.004L294.481,279.275L295.535,280.481L296.578,281.674L295.542,280.489L295.542,280.489L295.542,280.489L294.496,279.293L295.55,280.498L296.593,281.691L297.552,284.34L298.575,285.495L299.554,288.18L300.542,290.891L300.542,290.891L299.546,289.798L298.54,288.694L301.42,287.621L302.404,288.742L302.404,288.742L302.404,288.742L302.404,288.742L301.426,287.628L302.41,288.75L301.433,287.635L300.445,286.509L301.439,287.642L301.439,287.642L301.439,287.642L300.452,286.517L301.449,289.212L300.462,288.102L299.45,285.353L298.443,284.204L299.457,285.36L300.445,288.044L299.447,286.923L299.447,286.923L298.44,285.79L297.449,283.065L298.473,284.233L301.345,283.118L301.345,283.118L301.345,283.118L302.352,285.781L302.352,285.781L303.369,288.469L302.401,287.352L303.375,288.476L302.407,287.359L303.381,288.483L303.381,288.483L304.345,289.597L304.345,289.597L305.3,290.698L306.245,291.789L305.306,290.705L304.245,287.928L304.245,287.928L303.285,286.805L302.317,285.671L301.338,284.526L300.35,283.369L299.352,282.201L298.343,281.021L299.358,282.209L299.358,282.209L298.35,281.03L297.361,278.354L297.361,278.354L296.333,277.136L297.368,278.363L298.336,280.98L299.351,282.168L300.338,284.822L300.338,284.822L300.338,284.822L300.338,284.822L300.338,284.822L297.212,286.021L300.079,284.921L300.079,284.921L299.078,283.769L295.968,284.977L295.968,284.977L295.968,284.977L294.926,283.825L295.869,286.495L295.869,286.495L295.869,286.495L292.807,287.67L293.877,288.791L292.814,287.677L293.885,288.799L292.822,287.685L292.822,287.685L293.743,290.392L293.743,290.392L292.679,289.294L293.751,290.399L293.751,290.399L293.751,290.399L294.812,291.493L295.862,292.577L295.862,292.577L298.729,291.536L299.708,294.279L300.709,295.334L301.708,298.113L301.708,298.113L302.689,299.129L301.714,298.119L302.722,300.924L301.747,299.931L301.747,299.931L301.747,299.931L302.728,300.93L302.728,300.93L302.728,300.93L303.699,301.918L304.66,302.897L304.66,302.897L303.704,301.924L303.704,301.924L303.704,301.924L302.739,300.941L299.608,301.966L299.608,301.966L300.61,302.944L299.614,301.971L298.609,300.989L298.609,300.989L297.593,299.997L296.567,298.995L297.599,300.004L298.566,302.826L298.566,302.826L297.55,301.853L296.524,300.869L295.549,297.985L294.503,296.963L295.556,297.992L295.556,297.992L294.51,296.97L295.563,297.998L295.563,297.998L295.563,297.998L295.563,297.998L292.521,299.048L293.594,300.056L293.594,300.056L293.594,300.056L292.528,299.055L293.601,300.062L294.528,302.886L293.472,301.913L293.472,301.913L293.472,301.913L293.472,301.913L294.535,302.892L295.588,303.861L296.534,306.72L297.567,307.651L296.54,306.725L299.428,305.817L300.412,308.694L301.406,309.605L301.406,309.605L300.381,306.627L299.382,305.691L296.301,306.662L295.262,305.726L295.262,305.726L294.213,304.782L293.153,303.828L293.153,303.828L292.083,302.865L291.002,301.892L288.02,302.897L288.02,302.897L286.899,301.924L285.766,300.942L284.622,299.95L283.467,298.948L280.571,299.98L279.376,298.979L278.168,297.967L276.948,296.946L279.666,295.935L278.863,293.103L277.65,292.033L277.65,292.033L276.425,290.952L275.189,289.861L272.382,290.984L271.105,289.893L271.105,289.893L272.393,290.993L271.117,289.902L268.357,291.023L267.04,289.933L266.364,287.164L267.7,288.292L266.376,287.174L265.04,286.045L262.346,287.204L260.969,286.076L262.359,287.215L260.983,286.087L258.333,287.243L255.714,288.386L255.714,288.386L254.271,287.27L252.814,286.143L252.814,286.143L254.286,287.282L252.83,286.155L252.298,283.426L249.742,284.607L249.742,284.607L248.24,283.454L249.759,284.62L249.759,284.62L251.262,285.774L248.718,286.931L247.206,285.801L247.206,285.801L245.68,284.66L245.68,284.66L244.138,283.507L242.58,282.343L242.58,282.343L242.58,282.343L240.129,283.532L240.129,283.532L238.532,282.369L238.915,285.025L238.915,285.025L238.915,285.025L238.915,285.025L237.306,283.876L234.91,285.049L233.262,283.901L230.909,285.072L230.909,285.072L229.221,283.925L226.91,285.095L226.91,285.095L225.182,283.948L225.182,283.948L225.182,283.948L227.417,282.796L225.695,281.627L225.695,281.627L225.95,284.275L224.214,283.12L221.955,284.298L220.179,283.143L220.179,283.143L221.981,284.315L220.206,283.161L220.206,283.161L217.989,284.337L216.173,283.184L216.173,283.184L213.998,284.359L213.998,284.359L212.144,283.206L212.265,285.87L212.265,285.87L212.265,285.87L210.13,287.017L208.238,285.891L210.309,284.756L210.206,282.041L210.206,282.041L208.314,280.866L208.314,280.866L206.405,279.679L206.405,279.679L206.468,282.309L204.393,283.492L202.339,284.662L202.339,284.662L200.371,283.514L198.359,284.683L198.359,284.683L198.359,284.683L198.375,281.97L196.383,283.155L196.383,283.155L194.411,284.328L194.411,284.328L192.46,285.489L190.529,286.638L190.529,286.638L190.529,286.638L188.617,287.775L186.726,288.901L186.726,288.901L184.853,290.015L184.853,290.015L182.714,288.922L182.714,288.922L180.554,287.818L182.762,288.946L182.936,286.188L180.779,285.057L180.779,285.057L178.601,283.915L178.601,283.915L176.811,285.079L174.595,283.938L172.358,282.786L170.631,283.96L168.921,285.123L166.63,283.984L164.961,285.145L163.309,286.296L163.309,286.296L165.698,287.443L164.039,288.57L164.039,288.57L162.396,289.686L160.771,290.79L159.161,291.883L160.752,290.803L161.147,288.025L159.534,289.146" stroke="blue" stroke-width="2"/></g><g class="mark-symbol role-mark layer_2_marks" role="graphics-object" aria-roledescription="symbol mark container"><path aria-label="x: 0.229351547296; y: 0.160075233459" role="graphics-symbol" aria-roledescription="point" transform="translate(91.74061891845662,328.8554517960288)" d="M2.5,0A2.5,2.5,0,1,1,-2.5,0A2.5,2.5,0,1,1,2.5,0" stroke="white" stroke-width="2" opacity="0.7"/></g><g class="mark-text role-mark layer_3_marks" role="graphics-object" aria-roledescription="text mark container"><text aria-label="action: R; start: 0; end: 0" role="graphics-symbol" aria-roledescription="text mark" text-anchor="end" transform="translate(-5,405)" font-family="sans-serif" font-size="15px" fill="white">R</text></g><g class="mark-text role-mark layer_4_marks" role="graphics-object" aria-roledescription="text mark container"><text aria-label="action: P; start: 1; end: 0" role="graphics-symbol" aria-roledescription="text mark" text-anchor="start" transform="translate(405,405)" font-family="sans-serif" font-size="15px" fill="white">P</text></g><g class="mark-text role-mark layer_5_marks" role="graphics-object" aria-roledescription="text mark container"><text aria-label="action: S; start: 0.5; end: 0.866025403784" role="graphics-symbol" aria-roledescription="text mark" text-anchor="middle" transform="translate(200,10.099820540249542)" font-family="sans-serif" font-size="15px" fill="white">S</text></g><g class="mark-text role-mark layer_6_marks" role="graphics-object" aria-roledescription="text mark container"><text aria-label="action: ; start: 0.678228973576; end: 0.136932068168" role="graphics-symbol" aria-roledescription="text mark" text-anchor="start" transform="translate(281.29158943029995,355.1413030364298)" font-family="sans-serif" font-size="8px" fill="white"/></g><g class="mark-line role-mark layer_7_layer_0_layer_0_marks" role="graphics-object" aria-roledescription="line mark container"><path aria-label="order: 1; x: 1; y: 0" role="graphics-symbol" aria-roledescription="line mark" d="M400,400L200,15.1L0,400L400,400" stroke="#4c78a8" stroke-width="2"/></g><g class="mark-symbol role-mark layer_7_layer_0_layer_1_marks" role="graphics-object" aria-roledescription="symbol mark container"><path aria-label="order: 1; x: 1; y: 0" role="graphics-symbol" aria-roledescription="point" transform="translate(400,400)" d="M2.739,0A2.739,2.739,0,1,1,-2.739,0A2.739,2.739,0,1,1,2.739,0" fill="#4c78a8" stroke-width="2" opacity="1"/><path aria-label="order: 2; x: 0.5; y: 0.866025403784" role="graphics-symbol" aria-roledescription="point" transform="translate(200,15.099820540249542)" d="M2.739,0A2.739,2.739,0,1,1,-2.739,0A2.739,2.739,0,1,1,2.739,0" fill="#4c78a8" stroke-width="2" opacity="1"/><path aria-label="order: 3; x: 0; y: 0" role="graphics-symbol" aria-roledescription="point" transform="translate(0,400)" d="M2.739,0A2.739,2.739,0,1,1,-2.739,0A2.739,2.739,0,1,1,2.739,0" fill="#4c78a8" stroke-width="2" opacity="1"/><path aria-label="order: 4; x: 1; y: 0" role="graphics-symbol" aria-roledescription="point" transform="translate(400,400)" d="M2.739,0A2.739,2.739,0,1,1,-2.739,0A2.739,2.739,0,1,1,2.739,0" fill="#4c78a8" stroke-width="2" opacity="1"/></g><g class="mark-line role-mark layer_7_layer_1_marks" role="graphics-object" aria-roledescription="line mark container"><path aria-label="order: 0; x: 0.5; y: 0.288675134595" role="graphics-symbol" aria-roledescription="line mark" d="M200,271.7L202.01,272.989L203.999,274.265L203.999,274.265L203.999,274.265L205.968,275.528L206.027,278.118L206.027,278.118L205.966,275.473L204.034,274.233L202.083,272.981L202.083,272.981L202.062,270.389L202.062,270.389L202.062,270.389L202.062,270.389L202.062,270.389L204.051,271.691L204.051,271.691L204.091,274.244L206.059,275.507L206.059,275.507L206.059,275.507L206.059,275.507L208.006,276.757L208.006,276.757L209.934,277.994L209.934,277.994L208.04,276.779L205.948,278.018L206.007,280.632L207.955,281.83L208.034,284.48L208.113,287.156L206.022,288.29L207.969,289.411L208.048,292.134L209.973,293.216L209.973,293.216L208.079,292.151L208.079,292.151L207.997,289.359L209.923,290.469L209.923,290.469L210.022,293.202L210.121,295.96L212.025,297.004L212.025,297.004L212.025,297.004L213.91,298.036L211.76,299.061L213.647,300.073L215.515,301.074L215.669,303.907L217.516,304.87L217.516,304.87L215.695,303.921L213.855,302.962L211.998,301.994L211.998,301.994L212.117,304.835L212.117,304.835L212.117,304.835L210.243,303.885L210.344,306.744L212.245,307.679L214.126,308.604L214.126,308.604L211.976,309.522L211.976,309.522L214.087,308.621L214.087,308.621L214.087,308.621L211.936,309.539L213.821,310.445L213.821,310.445L213.821,310.445L213.957,313.365L216.088,312.502L217.93,313.379L216.112,312.514L216.272,315.452L214.1,316.301L214.239,319.274L212.384,318.468L214.264,319.285L216.398,318.481L216.56,321.474L214.385,322.262L212.532,321.486L214.65,320.703L212.495,321.499L214.373,322.286L216.232,323.064L216.232,323.064L218.072,323.834L216.255,323.074L218.095,323.844L216.278,323.083L216.438,326.117L216.6,329.177L218.436,329.886L218.617,332.979L218.617,332.979L218.8,336.099L216.989,335.46L215.161,334.816L213.003,335.47L214.875,336.116L214.723,332.841L214.723,332.841L214.723,332.841L214.723,332.841L214.723,332.841L214.867,335.959L213.018,335.319L214.89,335.967L214.89,335.967L214.89,335.967L214.89,335.967L216.743,336.608L216.743,336.608L216.743,336.608L216.743,336.608L216.743,336.608L218.903,335.976L221.084,335.338L221.084,335.338L222.874,335.985L221.104,335.345L221.104,335.345L221.104,335.345L220.889,332.079L221.094,335.191L221.301,338.329L223.089,338.946L224.859,339.557L226.611,340.162L226.871,343.341L228.602,343.907L228.602,343.907L230.316,344.468L230.316,344.468L232.61,343.915L232.61,343.915L230.273,344.479L232.566,343.926L232.566,343.926L232.884,347.135L232.884,347.135L234.555,347.663L236.89,347.142L234.51,347.673L232.854,347.15L232.854,347.15L232.854,347.15L234.525,347.678L236.179,348.201L235.808,344.779L235.808,344.779L238.154,344.229L237.763,340.857L240.128,340.268L237.714,340.869L239.336,341.46L238.934,338.121L240.544,338.74L240.544,338.74L240.544,338.74L242.138,339.352L243.716,339.958L245.277,340.558L242.81,341.156L242.81,341.156L245.224,340.571L245.224,340.571L245.666,343.754L244.121,343.191L244.121,343.191L244.121,343.191L244.121,343.191L244.121,343.191L244.121,343.191L245.679,343.759L245.211,340.392L243.662,339.795L244.089,342.971L245.647,343.541L245.647,343.541L244.103,342.976L244.533,346.178L246.087,346.716L243.612,347.252L243.612,347.252L243.612,347.252L242.047,346.724L243.625,347.256L245.188,347.783L247.625,347.264L246.1,346.736L247.638,347.268L247.638,347.268L247.638,347.268L247.638,347.268L250.099,346.744L250.099,346.744L248.599,346.211L249.072,349.438L249.072,349.438L250.58,349.943L249.084,349.442L250.592,349.947L252.084,350.447L252.084,350.447L250.603,349.951L248.082,350.454L248.082,350.454L248.082,350.454L246.561,349.958L245.026,349.457L245.026,349.457L245.463,352.708L245.463,352.708L243.917,352.235L243.917,352.235L245.476,352.712L245.917,355.986L244.375,355.545L245.929,355.989L245.929,355.989L245.929,355.989L248.376,355.551L249.89,355.995L250.372,359.291L251.867,359.698L251.867,359.698L251.867,359.698L253.346,360.1L253.346,360.1L250.798,360.502L248.276,360.899L249.791,361.289L249.791,361.289L248.287,360.902L250.757,360.513L249.263,360.117L246.757,360.518L248.288,360.913L250.757,360.524L250.757,360.524L248.236,360.921L248.236,360.921L246.717,360.529L248.248,360.924L246.728,360.532L248.259,360.927L246.74,360.535L245.206,360.14L243.656,359.741L242.091,359.338L243.668,359.745L243.668,359.745L243.668,359.745L245.23,360.147L245.23,360.147L245.23,360.147L245.665,363.467L246.103,366.806L247.64,367.137L247.14,363.441L248.667,363.807L248.158,360.166L250.627,359.77L250.627,359.77L253.119,359.369L250.573,359.778L252.065,360.18L252.065,360.18L254.571,359.784L256.024,360.186L253.448,360.586L250.898,360.983L249.405,360.592L249.405,360.592L250.909,360.985L250.909,360.985L248.387,361.378L249.901,361.763L249.901,361.763L251.4,362.145L249.912,361.766L249.912,361.766L252.397,361.386L250.919,360.999L252.408,361.389L249.87,361.777L249.87,361.777L249.87,361.777L247.358,362.161L245.83,361.783L245.353,358.173L245.353,358.173L243.804,357.754L245.365,358.176L245.365,358.176L243.817,357.758L242.254,357.335L242.254,357.335L242.254,357.335L240.675,356.908L239.08,356.477L239.08,356.477L236.679,356.914L236.679,356.914L236.679,356.914L239.036,356.485L240.644,356.92L239.049,356.488L240.657,356.923L239.063,356.492L240.671,356.927L238.253,357.359L236.634,356.933L238.267,357.363L236.648,356.936L235.014,356.506L237.354,356.072L238.98,356.511L237.368,356.076L235.741,355.637L235.741,355.637L235.371,352.116L235.715,355.386L234.071,354.939L235.729,355.39L233.362,355.838L233.362,355.838L235.028,356.279L233.377,355.841L233.377,355.841L233.377,355.841L231.034,356.285L231.034,356.285L232.723,356.722L231.05,356.289L231.05,356.289L232.738,356.726L232.738,356.726L232.738,356.726L231.065,356.293L228.746,356.731L227.033,356.299L227.033,356.299L225.303,355.862L223.556,355.42L223.556,355.42L221.792,354.974L223.574,355.425L223.574,355.425L221.331,355.872L219.545,355.43L217.741,354.985L215.919,354.535L215.919,354.535L214.079,354.08L211.933,354.541L210.053,354.086L208.156,353.628L208.156,353.628L206.239,353.164L204.303,352.696L202.257,353.17L202.257,353.17L200.231,353.639L198.236,353.176L196.222,352.709L196.185,355.982L196.185,355.982L194.221,356.423L192.277,356.859L190.353,357.291L190.353,357.291L188.261,356.865L186.377,357.296L184.513,357.724L182.363,357.302L182.363,357.302L180.539,357.729L178.733,358.152L176.946,358.57L174.722,358.157L174.722,358.157L172.476,357.74L174.201,357.317L173.952,360.621L173.952,360.621L173.952,360.621L172.213,361.015L172.213,361.015L173.936,360.625L175.676,360.231L177.433,359.833L177.433,359.833L179.664,360.236L179.664,360.236L177.467,359.839L179.242,359.438L179.242,359.438L179.242,359.438L177.449,359.843L175.23,359.443L175.23,359.443L173.478,359.848L175.75,360.251L173.514,359.855L171.78,360.256L174.069,360.655L171.817,360.263L169.543,359.867L171.239,359.465L172.952,359.06L172.952,359.06L172.952,359.06L170.688,358.652L170.688,358.652L172.396,358.238L170.673,358.655L168.967,359.069L168.967,359.069L170.657,358.659L170.657,358.659L170.657,358.659L168.371,358.247L168.371,358.247L170.056,357.829L168.356,358.251L170.04,357.833L168.341,358.255L170.666,358.674L168.38,358.262L170.705,358.681L170.705,358.681L173.005,359.095L170.743,358.688L172.451,358.274L170.727,358.692L168.442,358.28L166.135,357.864L163.805,357.444L165.444,357.019L167.799,357.45L167.799,357.45L166.122,357.875L163.792,357.456L161.44,357.032L163.056,356.602L163.056,356.602L161.426,357.036L159.051,356.608L160.643,356.174L161.05,352.646L159.441,353.119L161.036,352.65L159.427,353.123L157.834,353.591L160.268,354.058L158.666,354.517L160.254,354.062L158.653,354.521L158.653,354.521L158.653,354.521L160.24,354.065L157.854,353.608L155.445,353.147L155.445,353.147L157.001,352.678L157.444,349.197L159.02,348.689L156.622,348.178L158.19,347.66L156.609,348.183L158.176,347.664L159.759,347.14L158.162,347.669L158.162,347.669L156.582,348.192L158.149,347.673L157.741,350.911L156.165,351.401L153.74,350.918L152.204,351.408L152.696,347.944L151.171,348.464L149.66,348.979L151.159,348.469L151.159,348.469L152.672,347.953L155.159,348.476L155.159,348.476L155.159,348.476L153.609,348.991L155.147,348.481L155.147,348.481L156.699,347.965L156.699,347.965L156.699,347.965L157.144,344.546L158.717,343.991L159.14,340.621L160.732,340.027L158.352,339.431L158.352,339.431L155.95,338.828L154.391,339.44L152.848,340.045L150.393,339.449L150.393,339.449L151.898,338.843L150.38,339.454L148.878,340.059L146.384,339.464L146.384,339.464L147.849,338.858L149.329,338.246L149.329,338.246L147.837,338.863L146.36,339.474L146.36,339.474L147.825,338.868L150.365,339.484L151.87,338.878L153.39,338.266L152.933,341.43L154.464,340.844L152.92,341.435L155.407,342.024L157.867,342.608L158.298,339.255L156.716,339.862L158.284,339.26L158.284,339.26L159.868,338.653L161.467,338.039L161.861,334.741L161.861,334.741L163.479,334.089L161.845,334.748L164.24,335.404L162.598,336.05L162.598,336.05L164.224,335.41L165.866,334.764L163.537,334.115L163.537,334.115L163.909,330.863L165.548,330.172L163.892,330.87L165.531,330.179L163.199,329.485L163.199,329.485L163.574,326.286L163.574,326.286L161.938,327.024L161.938,327.024L161.938,327.024L161.938,327.024L163.557,326.294L163.557,326.294L163.927,323.132L161.581,322.368L161.581,322.368L159.965,323.144L158.366,323.913L158.366,323.913L158.789,320.777L158.789,320.777L157.201,321.569L154.79,320.791L155.249,317.69L152.82,316.873L154.349,316.042L151.912,315.209L151.912,315.209L151.438,318.172L152.952,317.354L154.482,316.527L156.027,315.692L153.607,314.856L153.607,314.856L156.091,315.714L156.091,315.714L153.671,314.878L153.671,314.878L151.228,314.034L149.716,314.893L148.219,315.744L146.738,316.586L145.271,317.42L143.819,318.245L143.265,321.236L143.265,321.236L144.699,320.448L146.147,319.652L146.693,316.564L146.167,319.539L147.629,318.734L147.629,318.734L150.175,319.554L150.175,319.554L151.678,318.749L151.678,318.749L153.195,317.936L151.663,318.757L149.2,317.951L150.693,317.13L152.2,316.301L153.723,315.464L154.191,312.422L151.754,311.554L152.242,308.555L152.242,308.555L152.725,305.588L152.725,305.588L154.252,304.644L152.709,305.597L152.709,305.597L150.259,304.662L148.757,305.615L150.245,304.672L152.767,305.634L154.294,304.691L151.859,303.746L153.378,302.784L154.911,301.812L152.483,300.839L154.008,299.848L154.008,299.848L153.552,302.669L155.087,301.696L155.541,298.803L158.008,299.824L158.008,299.824L155.61,298.831L155.61,298.831L155.61,298.831L154.053,299.843L154.517,296.97L156.061,295.94L156.504,293.108L154.938,294.177L157.413,295.246L155.838,296.294L155.838,296.294L155.838,296.294L156.284,293.458L156.724,290.652L156.724,290.652L156.724,290.652L156.724,290.652L158.29,289.56L158.711,286.795L158.711,286.795L158.301,289.493L158.721,286.729L159.136,283.993L160.726,282.835L161.121,280.14L161.121,280.14L161.512,277.474L163.125,276.251L165.518,277.501L163.196,276.288L162.83,278.885L164.456,277.675L166.097,276.454L166.438,273.826L166.438,273.826L166.438,273.826L166.776,271.226L168.44,269.94L170.121,268.643L168.415,269.959L170.096,268.662L168.391,269.978L166.703,271.281L166.703,271.281L167.038,268.707L167.369,266.159L169.72,267.512L171.413,266.19L171.413,266.19L171.413,266.19L171.413,266.19L171.7,263.668L173.412,262.309L173.679,259.827L173.943,257.37L175.677,255.949L175.677,255.949L175.677,255.949L175.921,253.532L174.156,255.002L174.415,252.595L172.183,251.137L172.462,248.77L174.18,247.262L172.432,248.795L172.709,246.452L172.709,246.452L172.982,244.133L170.739,242.593L172.44,241.024L174.744,242.633L174.744,242.633L174.744,242.633L172.989,244.213L172.989,244.213L171.253,245.777L171.541,243.464L173.25,241.905L173.519,239.632L175.247,238.035L175.247,238.035L176.992,236.422L176.992,236.422L178.754,234.793L180.533,233.149L180.727,230.966L178.56,229.295L178.56,229.295L178.775,227.15L178.987,225.027L179.198,222.926L179.406,220.846L179.612,218.787L179.816,216.749L181.603,214.928L181.603,214.928L181.787,212.929L179.635,211.084L179.635,211.084L179.838,209.123L181.625,207.227L179.796,209.168L181.582,207.272L179.754,209.213L179.754,209.213L179.754,209.213L179.754,209.213L179.754,209.213L179.552,211.154L181.788,213.07L181.788,213.07L181.971,211.09L181.79,213.049L181.79,213.049L181.79,213.049L181.972,211.069L180.141,212.971L180.141,212.971L180.141,212.971L179.942,214.949L181.73,213.11L181.913,211.129L183.72,209.253L183.883,207.312L183.883,207.312L182.031,209.252L182.031,209.252L182.21,207.311L184.02,205.397L184.02,205.397L184.02,205.397L185.846,203.466L187.69,201.516L187.69,201.516L189.842,203.528L187.928,205.509L189.792,203.58L187.878,205.561L187.878,205.561L189.741,203.632L189.844,201.747L187.929,203.747L188.05,201.861L188.05,201.861L188.05,201.861L189.915,199.896L189.915,199.896L189.915,199.896L191.797,197.913L193.697,195.911L193.697,195.911L193.76,194.104L193.76,194.104L193.76,194.104L193.822,192.315L193.76,194.089L193.76,194.089L195.678,192.05L195.721,190.282L195.764,188.532L195.764,188.532L195.806,186.799L195.848,185.084L197.784,182.96L195.782,185.157L195.782,185.157L195.824,183.458L195.866,181.777L193.853,179.625L193.915,177.982L195.83,175.789L195.83,175.789L195.872,174.184L197.805,171.956L197.805,171.956L197.805,171.956L197.805,171.956L197.783,173.527L199.734,171.293L199.734,171.293L199.734,171.293L199.737,169.733L201.705,167.465L199.656,169.827L199.659,168.282L199.659,168.282L199.659,168.282L199.659,168.282L201.626,166L203.61,163.697L201.538,166.101L203.522,163.799L203.487,162.315L205.481,164.728L203.39,167.122L205.39,164.832L205.39,164.832L203.472,162.513L203.437,161.042L203.471,162.504L203.437,161.033L203.437,161.033L203.402,159.576L203.369,158.134L203.369,158.134L203.335,156.707L203.302,155.294L203.335,156.699L203.335,156.699L203.301,155.286L203.268,153.887L203.236,152.502L203.204,151.131L203.236,152.494L203.203,151.124L203.171,149.766L203.14,148.423L205.143,150.983L203.227,148.534L203.194,147.202L203.194,147.202L203.162,145.885L203.131,144.58L203.162,145.878L203.131,144.573L203.131,144.573L205.119,142.073L205.068,140.806L205.119,142.067L205.068,140.8L203.154,138.256L205.14,135.698L205.089,134.495L205.038,133.304L205.088,134.49L205.038,133.299L207.036,130.699L206.966,129.547L207.036,130.695L207.107,131.854L207.107,131.854L207.036,130.69L206.965,129.537L206.965,129.537L208.978,126.907L208.888,125.793L207.015,123.106L207.086,124.189L207.086,124.189L207.015,123.101L209.022,120.416L209.022,120.416L211.043,117.713L211.154,118.743L211.043,117.71L211.043,117.71L210.933,116.687L210.933,116.687L210.824,115.674L210.716,114.672L210.716,114.672L210.716,114.672L210.823,115.671L210.823,115.671L210.715,114.668L208.525,117.634L208.525,117.634L208.525,117.634L208.525,117.634L208.44,116.612L208.525,117.63L208.44,116.608L208.524,117.627L208.524,117.627L208.439,116.605L208.524,117.623L208.524,117.623L208.439,116.601L208.439,116.601L208.439,116.601L210.398,119.5L210.295,118.459L210.295,118.459L208.115,121.378L208.034,120.318L208.114,121.374L208.034,120.314L208.034,120.314L210.047,117.608L209.946,116.586L209.946,116.586L210.046,117.604L209.946,116.583L209.946,116.583L210.046,117.601L210.046,117.601L209.946,116.579L207.768,119.519L207.768,119.519L207.768,119.519L207.846,120.566L207.767,119.515L209.733,122.383L207.869,119.663L207.869,119.663L207.791,118.621L207.791,118.621L207.713,117.589L207.713,117.589L205.564,120.51L205.62,121.568L205.676,122.636L205.676,122.636L205.62,121.564L205.676,122.632L205.676,122.632L205.676,122.632L203.776,119.92L203.814,120.971L203.814,120.971L203.853,122.033L203.853,122.033L203.891,123.106L203.93,124.189L203.93,124.189L203.93,124.189L203.97,125.283L204.009,126.389L204.009,126.389L204.05,127.505L204.05,127.505L204.009,126.384L204.009,126.384L203.969,125.274L205.953,122.602L204.056,119.89L204.016,118.845L204.016,118.845L203.976,117.811L203.976,117.811L204.016,118.841L203.975,117.807L203.936,116.783L203.975,117.803L204.015,118.834L203.975,117.8L204.015,118.83L204.055,119.87L204.055,119.87L206.036,117.151L206.097,118.175L206.097,118.175L206.158,119.209L206.22,120.253L206.282,121.308L208.263,124.158L206.385,121.457L206.449,122.524" stroke="red" stroke-width="2"/></g><g class="mark-symbol role-mark layer_7_layer_2_marks" role="graphics-object" aria-roledescription="symbol mark container"><path aria-label="x: 0.5; y: 0.288675134595" role="graphics-symbol" aria-roledescription="point" transform="translate(200,271.69994018008316)" d="M2.5,0A2.5,2.5,0,1,1,-2.5,0A2.5,2.5,0,1,1,2.5,0" stroke="white" stroke-width="2" opacity="0.7"/></g><g class="mark-text role-mark layer_7_layer_3_marks" role="graphics-object" aria-roledescription="text mark container"><text aria-label="action: R; start: 0; end: 0" role="graphics-symbol" aria-roledescription="text mark" text-anchor="end" transform="translate(-5,405)" font-family="sans-serif" font-size="15px" fill="white">R</text></g><g class="mark-text role-mark layer_7_layer_4_marks" role="graphics-object" aria-roledescription="text mark container"><text aria-label="action: P; start: 1; end: 0" role="graphics-symbol" aria-roledescription="text mark" text-anchor="start" transform="translate(405,405)" font-family="sans-serif" font-size="15px" fill="white">P</text></g><g class="mark-text role-mark layer_7_layer_5_marks" role="graphics-object" aria-roledescription="text mark container"><text aria-label="action: S; start: 0.5; end: 0.866025403784" role="graphics-symbol" aria-roledescription="text mark" text-anchor="middle" transform="translate(200,10.099820540249542)" font-family="sans-serif" font-size="15px" fill="white">S</text></g><g class="mark-text role-mark layer_7_layer_6_marks" role="graphics-object" aria-roledescription="text mark container"><text aria-label="action: ; start: 0.333333333333; end: 0.333333333333" role="graphics-symbol" aria-roledescription="text mark" text-anchor="start" transform="translate(143.33333333333331,267.85185185185185)" font-family="sans-serif" font-size="8px" fill="white"/></g></g><path class="foreground" aria-hidden="true" d="" display="none"/></g></g></g></svg>