<svg xmlns="http://www.w3.org/2000/svg" xmlns:xlink="http://www.w3.org/1999/xlink" version="1.1" class="marks" width="591" height="264" viewBox="0 0 591 264"><rect width="591" height="264" fill="#202025"/><g fill="none" stroke-miterlimit="10" transform="translate(21,27)"><g class="mark-group role-frame root" role="graphics-object" aria-roledescription="group mark container"><g transform="translate(0,0)"><path class="background" aria-hidden="true" d="M0,0h0v200h0Z"/><g><g class="mark-group role-scope concat_0_group" role="graphics-object" aria-roledescription="group mark container"><g transform="translate(0,0)"><path class="background" aria-hidden="true" d="M0,0h200v200h-200Z" stroke="#ddd" stroke-width="0"/><g><g class="mark-line role-mark concat_0_layer_0_layer_0_marks" role="graphics-object" aria-roledescription="line mark container"><path aria-label="order: 1; x: 1; y: 0" role="graphics-symbol" aria-roledescription="line mark" d="M200,200L100,7.55L0,200L200,200" stroke="#4c78a8" stroke-width="2"/></g><g class="mark-symbol role-mark concat_0_layer_0_layer_1_marks" role="graphics-object" aria-roledescription="symbol mark container"><path aria-label="order: 1; x: 1; y: 0" role="graphics-symbol" aria-roledescription="point" transform="translate(200,200)" d="M2.739,0A2.739,2.739,0,1,1,-2.739,0A2.739,2.739,0,1,1,2.739,0" fill="#4c78a8" stroke-width="2" opacity="1"/><path aria-label="order: 2; x: 0.5; y: 0.866025403784" role="graphics-symbol" aria-roledescription="point" transform="translate(100,7.549910270124771)" d="M2.739,0A2.739,2.739,0,1,1,-2.739,0A2.739,2.739,0,1,1,2.739,0" fill="#4c78a8" stroke-width="2" opacity="1"/><path aria-label="order: 3; x: 0; y: 0" role="graphics-symbol" aria-roledescription="point" transform="translate(0,200)" d="M2.739,0A2.739,2.739,0,1,1,-2.739,0A2.739,2.739,0,1,1,2.739,0" fill="#4c78a8" stroke-width="2" opacity="1"/><path aria-label="order: 4; x: 1; y: 0" role="graphics-symbol" aria-roledescription="point" transform="translate(200,200)" d="M2.739,0A2.739,2.739,0,1,1,-2.739,0A2.739,2.739,0,1,1,2.739,0" fill="#4c78a8" stroke-width="2" opacity="1"/></g><g class="mark-line role-mark concat_0_layer_1_marks" role="graphics-object" aria-roledescription="line mark container"><path aria-label="order: 0; x: 0.5; y: 0.288675134595" role="graphics-symbol" aria-roledescription="line mark" d="M100,135.85L103.917,133.337L103.917,133.337L103.917,133.337L107.966,130.74L112.147,128.058L108.683,125.221L105.096,122.284L105.096,122.284L104.89,117.654L101.182,114.443L101.182,114.443L101.228,118.695L101.228,118.695L105.286,122.035L109.154,125.219L108.784,120.462L112.5,123.702L112.994,128.296L109.561,125.467L113.778,122.598L110.381,119.549L109.963,115.037L113.636,118.504L114.177,122.907L114.177,122.907L114.177,122.907L114.177,122.907L110.795,119.868L110.795,119.868L110.36,115.343L109.943,111.01L106.426,107.534L106.682,111.525L106.682,111.525L103.049,108.08L102.927,104.054L102.927,104.054L106.944,108.025L107.221,112.034L111.022,115.638L115.247,112.427L115.854,116.603L115.854,116.603L115.216,112.217L115.216,112.217L115.822,116.385L115.822,116.385L112.509,113.094L116.074,116.635L119.478,120.017L119.478,120.017L119.478,120.017L119.478,120.017L119.478,120.017L119.478,120.017L116.296,116.856L116.296,116.856L119.691,120.228L118.897,115.687L118.897,115.687L113.819,119.288L109.039,122.678L109.039,122.678L104.511,125.889L104.329,121.103L104.154,116.524L104.154,116.524L104.154,116.524L104.154,116.524L100.422,113.273L100.405,109.029L100.421,113.076L100.421,113.076L100.438,117.276L100.438,117.276L100.455,121.634L100.473,126.152L100.473,126.152L100.473,126.152L100.473,126.152L96.592,123.273L96.592,123.273L96.592,123.273L100.364,120.276L100.364,120.276L96.493,117.179L100.249,113.955L104.364,117.504L108.386,114.324L108.386,114.324L112.526,111.052L112.526,111.052L113.025,115.176L116.564,118.627L117.221,123.035L117.221,123.035L117.221,123.035L113.951,119.995L114.504,124.453L115.078,129.075L114.467,124.148L114.467,124.148L115.039,128.759L118.473,131.638L119.199,136.517L119.199,136.517L118.416,131.256L115.182,128.531L119.586,125.799L122.83,128.793L122.83,128.793L123.73,133.57L124.661,138.517L129.388,136.186L126.569,133.639L123.644,130.995L120.609,128.252L115.52,131.279L114.89,126.255L119.275,123.44L118.497,118.76L118.497,118.76L118.497,118.76L121.795,122.048L124.949,125.192L121.969,122.221L121.082,117.594L120.234,113.166L119.422,108.926L120.196,112.969L120.196,112.969L120.196,112.969L121,117.166L124.194,120.514L124.194,120.514L118.844,123.938L123.332,121.066L120.294,117.938L120.294,117.938L120.294,117.938L123.516,121.255L123.516,121.255L124.448,125.76L124.448,125.76L124.448,125.76L129.091,122.99L126.27,119.927L130.905,116.987L130.905,116.987L132.133,121.334L129.43,118.201L129.43,118.201L128.246,113.747L128.246,113.747L127.111,109.482L127.111,109.482L127.111,109.482L124.227,105.9L125.195,109.829L126.199,113.906L127.241,118.138L130.171,121.434L128.954,116.841L127.789,112.445L132.365,109.31L132.365,109.31L135.087,112.96L133.679,108.728L133.679,108.728L133.679,108.728L136.346,112.4L136.346,112.4L129.82,116.594L134.471,113.605L134.471,113.605L134.471,113.605L137.103,117.075L137.103,117.075L137.103,117.075L141.768,114.253L141.768,114.253L144.099,117.685L142.324,113.253L140.625,109.009L138.997,104.944L138.997,104.944L138.997,104.944L140.555,108.835L138.93,104.777L136.501,100.989L139.057,104.974L140.617,108.867L138.25,105.235L138.25,105.235L140.731,109.041L143.107,112.688L141.377,108.468L141.377,108.468L143.726,112.136L145.978,115.652L143.816,112.277L145.561,116.447L147.736,119.785L149.82,122.984L151.82,126.053L149.884,123.082L151.881,126.146L149.782,121.349L149.782,121.349L151.783,124.483L149.847,121.45L147.835,118.299L149.733,122.695L151.702,127.252L149.608,122.406L149.608,122.406L149.608,122.406L149.608,122.406L147.587,119.293L147.587,119.293L147.587,119.293L145.67,114.792L143.835,110.483L141.592,106.908L141.592,106.908L141.592,106.908L143.934,110.64L141.695,107.072L141.695,107.072L141.695,107.072L139.37,103.367L139.37,103.367L141.806,107.249L143.475,111.229L143.475,111.229L145.737,114.781L145.737,114.781L147.905,118.186L152.028,115.906L150.104,112.533L148.106,109.03L148.106,109.03L146.031,105.392L143.876,101.614L145.632,105.378L143.461,101.601L145.2,105.365L147.006,109.272L145.123,105.196L145.123,105.196L147.32,108.993L149.208,113.039L151.166,117.237L153.113,120.537L151.23,117.346L151.23,117.346L151.23,117.346L149.274,114.031L149.274,114.031L149.274,114.031L147.243,110.588L145.133,107.012L147.329,110.734L149.434,114.302L149.434,114.302L151.452,117.722L149.381,113.288L147.399,109.043L147.399,109.043L149.502,112.679L136.352,120.359L136.352,120.359L138.902,123.55L138.902,123.55L143.697,120.911L141.935,116.34L140.249,111.966L140.249,111.966L137.865,108.454L135.392,104.811L135.392,104.811L135.392,104.811L135.392,104.811L135.392,104.811L135.392,104.811L139.734,101.758L141.324,105.527L141.324,105.527L138.987,101.763L138.987,101.763L138.987,101.763L137.429,98L134.947,93.953L137.573,98.234L137.573,98.234L141.403,95.401L141.403,95.401L141.403,95.401L139.753,91.9" stroke="red" stroke-width="2"/></g><g class="mark-symbol role-mark concat_0_layer_2_marks" role="graphics-object" aria-roledescription="symbol mark container"><path aria-label="x: 0.5; y: 0.288675134595" role="graphics-symbol" aria-roledescription="point" transform="translate(100,135.84997009004158)" d="M2.5,0A2.5,2.5,0,1,1,-2.5,0A2.5,2.5,0,1,1,2.5,0" stroke="white" stroke-width="2" opacity="0.7"/></g><g class="mark-text role-mark concat_0_layer_3_marks" role="graphics-object" aria-roledescription="text mark container"><text aria-label="action: R; start: 0; end: 0" role="graphics-symbol" aria-roledescription="text mark" text-anchor="end" transform="translate(-5,205)" font-family="sans-serif" font-size="15px" fill="white">R</text></g><g class="mark-text role-mark concat_0_layer_4_marks" role="graphics-object" aria-roledescription="text mark container"><text aria-label="action: P; start: 1; end: 0" role="graphics-symbol" aria-roledescription="text mark" text-anchor="start" transform="translate(205,205)" font-family="sans-serif" font-size="15px" fill="white">P</text></g><g class="mark-text role-mark concat_0_layer_5_marks" role="graphics-object" aria-roledescription="text mark container"><text aria-label="action: S; start: 0.5; end: 0.866025403784" role="graphics-symbol" aria-roledescription="text mark" text-anchor="middle" transform="translate(100,2.549910270124771)" font-family="sans-serif" font-size="15px" fill="white">S</text></g><g class="mark-text role-mark concat_0_layer_6_marks" role="graphics-object" aria-roledescription="text mark container"><text aria-label="action: Initial Policy; start: 0.333333333333; end: 0.333333333333" role="graphics-symbol" aria-roledescription="text mark" text-anchor="start" transform="translate(76.66666666666666,141.92592592592592)" font-family="sans-serif" font-size="8px" fill="white">Initial Policy</text></g></g><path class="foreground" aria-hidden="true" d="" display="none"/></g></g><g class="mark-group role-scope concat_1_group" role="graphics-object" aria-roledescription="group mark container"><g transform="translate(273,0)"><path class="background" aria-hidden="true" d="M0,0h200v200h-200Z" stroke="#ddd" stroke-width="0"/><g><g class="mark-group role-axis" role="graphics-symbol" aria-roledescription="axis" aria-label="X-axis titled 'round' for a linear scale with values from 0 to 300"><g transform="translate(0.5,200.5)"><path class="background" aria-hidden="true" d="M0,0h0v0h0Z" pointer-events="none"/><g><g class="mark-rule role-axis-tick" pointer-events="none"><line transform="translate(0,0)" x2="0" y2="5" stroke="#888" stroke-width="1" opacity="1"/><line transform="translate(33,0)" x2="0" y2="5" stroke="#888" stroke-width="1" opacity="1"/><line transform="translate(67,0)" x2="0" y2="5" stroke="#888" stroke-width="1" opacity="1"/><line transform="translate(100,0)" x2="0" y2="5" stroke="#888" stroke-width="1" opacity="1"/><line transform="translate(133,0)" x2="0" y2="5" stroke="#888" stroke-width="1" opacity="1"/><line transform="translate(167,0)" x2="0" y2="5" stroke="#888" stroke-width="1" opacity="1"/><line transform="translate(200,0)" x2="0" y2="5" stroke="#888" stroke-width="1" opacity="1"/></g><g class="mark-text role-axis-label" pointer-events="none"><text text-anchor="start" transform="translate(0,15)" font-family="sans-serif" font-size="10px" fill="white" opacity="1">0</text><text text-anchor="middle" transform="translate(33.33333333333333,15)" font-family="sans-serif" font-size="10px" fill="white" opacity="1">50</text><text text-anchor="middle" transform="translate(66.66666666666666,15)" font-family="sans-serif" font-size="10px" fill="white" opacity="1">100</text><text text-anchor="middle" transform="translate(100,15)" font-family="sans-serif" font-size="10px" fill="white" opacity="1">150</text><text text-anchor="middle" transform="translate(133.33333333333331,15)" font-family="sans-serif" font-size="10px" fill="white" opacity="1">200</text><text text-anchor="middle" transform="translate(166.66666666666669,15)" font-family="sans-serif" font-size="10px" fill="white" opacity="1">250</text><text text-anchor="end" transform="translate(200,15)" font-family="sans-serif" font-size="10px" fill="white" opacity="1">300</text></g><g class="mark-rule role-axis-domain" pointer-events="none"><line transform="translate(0,0)" x2="200" y2="0" stroke="#888" stroke-width="1" opacity="1"/></g><g class="mark-text role-axis-title" pointer-events="none"><text text-anchor="middle" transform="translate(100,30)" font-family="sans-serif" font-size="11px" font-weight="bold" fill="white" opacity="1">round</text></g></g><path class="foreground" aria-hidden="true" d="" pointer-events="none" display="none"/></g></g><g class="mark-group role-axis" role="graphics-symbol" aria-roledescription="axis" aria-label="Y-axis titled 'pseudo-regret' for a linear scale with values from 0.0 to 2.0"><g transform="translate(0.5,0.5)"><path class="background" aria-hidden="true" d="M0,0h0v0h0Z" pointer-events="none"/><g><g class="mark-rule role-axis-tick" pointer-events="none"><line transform="translate(0,200)" x2="-5" y2="0" stroke="#888" stroke-width="1" opacity="1"/><line transform="translate(0,150)" x2="-5" y2="0" stroke="#888" stroke-width="1" opacity="1"/><line transform="translate(0,100)" x2="-5" y2="0" stroke="#888" stroke-width="1" opacity="1"/><line transform="translate(0,50)" x2="-5" y2="0" stroke="#888" stroke-width="1" opacity="1"/><line transform="translate(0,0)" x2="-5" y2="0" stroke="#888" stroke-width="1" opacity="1"/></g><g class="mark-text role-axis-label" pointer-events="none"><text text-anchor="end" transform="translate(-7,203)" font-family="sans-serif" font-size="10px" fill="white" opacity="1">0.0</text><text text-anchor="end" transform="translate(-7,153)" font-family="sans-serif" font-size="10px" fill="white" opacity="1">0.5</text><text text-anchor="end" transform="translate(-7,103)" font-family="sans-serif" font-size="10px" fill="white" opacity="1">1.0</text><text text-anchor="end" transform="translate(-7,53)" font-family="sans-serif" font-size="10px" fill="white" opacity="1">1.5</text><text text-anchor="end" transform="translate(-7,3)" font-family="sans-serif" font-size="10px" fill="white" opacity="1">2.0</text></g><g class="mark-rule role-axis-domain" pointer-events="none"><line transform="translate(0,200)" x2="0" y2="-200" stroke="#888" stroke-width="1" opacity="1"/></g><g class="mark-text role-axis-title" pointer-events="none"><text text-anchor="middle" transform="translate(-26.875,100) rotate(-90) translate(0,-2)" font-family="sans-serif" font-size="11px" font-weight="bold" fill="white" opacity="1">pseudo-regret</text></g></g><path class="foreground" aria-hidden="true" d="" pointer-events="none" display="none"/></g></g><g class="mark-group role-scope concat_1_pathgroup" role="graphics-object" aria-roledescription="group mark container"><g transform="translate(0,0)"><path class="background" aria-hidden="true" d="M0,0h200v200h-200Z"/><g><g class="mark-line role-mark concat_1_marks" role="graphics-object" aria-roledescription="line mark container"><path aria-label="legend: regret; round: 0; pseudo-regret: 0.025" role="graphics-symbol" aria-roledescription="line mark" d="M0,197.5L0.667,195L1.333,194.5L2,192L2.667,189.5L3.333,189.5L4,189.5L4.667,189.5L5.333,189L6,189L6.667,188.5L7.333,188L8,185.5L8.667,185.5L9.333,185.5L10,185L10.667,185L11.333,184.5L12,184.5L12.667,182L13.333,182L14,181.5L14.667,181.5L15.333,181L16,180.5L16.667,180.5L17.333,180.5L18,180.5L18.667,178L19.333,177.5L20,177L20.667,177L21.333,176.5L22,176.5L22.667,176.5L23.333,176L24,175.5L24.667,175.5L25.333,175L26,175L26.667,172.5L27.333,172L28,172L28.667,171.5L29.333,171L30,170.5L30.667,168L31.333,168L32,168L32.667,168L33.333,168L34,168L34.667,168L35.333,167.5L36,165L36.667,165L37.333,164.5L38,164.5L38.667,164L39.333,163.5L40,161L40.667,158.5L41.333,158L42,155.5L42.667,155L43.333,154.5L44,154L44.667,153.5L45.333,153L46,153L46.667,152.5L47.333,152L48,152L48.667,151.5L49.333,149L50,148.5L50.667,148L51.333,148L52,145.5L52.667,145.5L53.333,145.5L54,145L54.667,145L55.333,142.5L56,142.5L56.667,142.5L57.333,140L58,140L58.667,137.5L59.333,137L60,134.5L60.667,134.5L61.333,134L62,134L62.667,133.5L63.333,133.5L64,133L64.667,133L65.333,132.5L66,132L66.667,131.5L67.333,131L68,130.5L68.667,130.5L69.333,130L70,130L70.667,129.5L71.333,129.5L72,127L72.667,127L73.333,126.5L74,126L74.667,125.5L75.333,123L76,123L76.667,123L77.333,123L78,120.5L78.667,120L79.333,117.5L80,117L80.667,116.5L81.333,116.5L82,116.5L82.667,116.5L83.333,116.5L84,116L84.667,115.5L85.333,115L86,114.5L86.667,114.5L87.333,114.5L88,114L88.667,114L89.333,114L90,111.5L90.667,109L91.333,109L92,108.5L92.667,108L93.333,108L94,108L94.667,107.5L95.333,107L96,107L96.667,104.5L97.333,104.5L98,102L98.667,101.5L99.333,101L100,101L100.667,101L101.333,100.5L102,100.5L102.667,100L103.333,100L104,97.5L104.667,97.5L105.333,97L106,96.5L106.667,96L107.333,96L108,95.5L108.667,95L109.333,92.5L110,92.5L110.667,92.5L111.333,92L112,92L112.667,91.5L113.333,91.5L114,91.5L114.667,89L115.333,86.5L116,86.5L116.667,86.5L117.333,86.5L118,86.5L118.667,84L119.333,81.5L120,81L120.667,81L121.333,80.5L122,80L122.667,79.5L123.333,79.5L124,79.5L124.667,79L125.333,78.5L126,78.5L126.667,78.5L127.333,78L128,78L128.667,77.5L129.333,77.5L130,77.5L130.667,77L131.333,77L132,77L132.667,77L133.333,77L134,76.5L134.667,76.5L135.333,76.5L136,76.5L136.667,76.5L137.333,76.5L138,76L138.667,76L139.333,76L140,76L140.667,76L141.333,75.5L142,75L142.667,74.5L143.333,74.5L144,74L144.667,74L145.333,74L146,74L146.667,73.5L147.333,73L148,72.5L148.667,72.5L149.333,72L150,72L150.667,72L151.333,72L152,72L152.667,71.5L153.333,71.5L154,71L154.667,71L155.333,70.5L156,70.5L156.667,70.5L157.333,70L158,70L158.667,67.5L159.333,67.5L160,67.5L160.667,67.5L161.333,67.5L162,67.5L162.667,67L163.333,67L164,66.5L164.667,66L165.333,65.5L166,65L166.667,65L167.333,64.5L168,64L168.667,64L169.333,64L170,64L170.667,64L171.333,64L172,64L172.667,64L173.333,64L174,64L174.667,64L175.333,64L176,63.5L176.667,63.5L177.333,63L178,62.5L178.667,62.5L179.333,62.5L180,60L180.667,57.5L181.333,57.5L182,57L182.667,54.5L183.333,54L184,53.5L184.667,53L185.333,53L186,53L186.667,53L187.333,50.5L188,48L188.667,48L189.333,47.5L190,45L190.667,44.5L191.333,42L192,42L192.667,41.5L193.333,41L194,40.5L194.667,40.5L195.333,40.5L196,40L196.667,37.5L197.333,37.5L198,37.5L198.667,37L199.333,37" stroke="#f58518" stroke-width="2"/></g></g><path class="foreground" aria-hidden="true" d="" display="none"/></g><g transform="translate(0,0)"><path class="background" aria-hidden="true" d="M0,0h200v200h-200Z"/><g><g class="mark-line role-mark concat_1_marks" role="graphics-object" aria-roledescription="line mark container"><path aria-label="legend: max regret; round: 0; pseudo-regret: 0.025" role="graphics-symbol" aria-roledescription="line mark" d="M0,197.5L0.667,195L1.333,192.5L2,190L2.667,187.5L3.333,185L4,182.5L4.667,180L5.333,177.5L6,175L6.667,172.5L7.333,170L8,167.5L8.667,165L9.333,162.5L10,160L10.667,157.5L11.333,155L12,152.5L12.667,150L13.333,147.5L14,145L14.667,142.5L15.333,140L16,137.5L16.667,135L17.333,132.5L18,130L18.667,127.5L19.333,125L20,122.5L20.667,120L21.333,117.5L22,115L22.667,112.5L23.333,110L24,107.5L24.667,105L25.333,102.5L26,100L26.667,97.5L27.333,95L28,92.5L28.667,90L29.333,87.5L30,85L30.667,82.5L31.333,80L32,77.5L32.667,75L33.333,72.5L34,70L34.667,67.5L35.333,65L36,62.5L36.667,60L37.333,57.5L38,55L38.667,52.5L39.333,50L40,47.5L40.667,45L41.333,42.5L42,40L42.667,37.5L43.333,35L44,32.5L44.667,30L45.333,27.5L46,25L46.667,22.5L47.333,20L48,17.5L48.667,15L49.333,12.5L50,10L50.667,7.5L51.333,5L52,2.5L52.667,0" stroke="#4c78a8" stroke-width="2"/></g></g><path class="foreground" aria-hidden="true" d="" display="none"/></g></g><g class="mark-group role-title"><g transform="translate(100,-22)"><path class="background" aria-hidden="true" d="M0,0h0v0h0Z" pointer-events="none"/><g><g class="mark-text role-title-text" role="graphics-symbol" aria-roledescription="title" aria-label="Title text 'Regret'" pointer-events="none"><text text-anchor="middle" transform="translate(0,10)" font-family="sans-serif" font-size="13px" font-weight="bold" fill="white" opacity="1">Regret</text></g></g><path class="foreground" aria-hidden="true" d="" pointer-events="none" display="none"/></g></g></g><path class="foreground" aria-hidden="true" d="" display="none"/></g></g><g class="mark-group role-legend" role="graphics-symbol" aria-roledescription="legend" aria-label="Symbol legend titled 'legend' for stroke color with 2 values: max regret, regret"><g transform="translate(493,0)"><path class="background" aria-hidden="true" d="M0,0h72v40h-72Z" pointer-events="none"/><g><g class="mark-group role-legend-entry"><g transform="translate(0,16)"><path class="background" aria-hidden="true" d="M0,0h0v0h0Z" pointer-events="none"/><g><g class="mark-group role-scope" role="graphics-object" aria-roledescription="group mark container"><g transform="translate(0,0)"><path class="background" aria-hidden="true" d="M0,0h71.3499984741211v11h-71.3499984741211Z" pointer-events="none" opacity="1"/><g><g class="mark-symbol role-legend-symbol" pointer-events="none"><path transform="translate(6,6)" d="M-5,0L5,0" stroke="#4c78a8" stroke-width="1.5" opacity="1"/></g><g class="mark-text role-legend-label" pointer-events="none"><text text-anchor="start" transform="translate(16,9)" font-family="sans-serif" font-size="10px" fill="white" opacity="1">max regret</text></g></g><path class="foreground" aria-hidden="true" d="" pointer-events="none" display="none"/></g><g transform="translate(0,13)"><path class="background" aria-hidden="true" d="M0,0h71.3499984741211v11h-71.3499984741211Z" pointer-events="none" opacity="1"/><g><g class="mark-symbol role-legend-symbol" pointer-events="none"><path transform="translate(6,6)" d="M-5,0L5,0" stroke="#f58518" stroke-width="1.5" opacity="1"/></g><g class="mark-text role-legend-label" pointer-events="none"><text text-anchor="start" transform="translate(16,9)" font-family="sans-serif" font-size="10px" fill="white" opacity="1">regret</text></g></g><path class="foreground" aria-hidden="true" d="" pointer-events="none" display="none"/></g></g></g><path class="foreground" aria-hidden="true" d="" pointer-events="none" display="none"/></g></g><g class="mark-text role-legend-title" pointer-events="none"><text text-anchor="start" transform="translate(0,9)" font-family="sans-serif" font-size="11px" font-weight="bold" fill="white" opacity="1">legend</text></g></g><path class="foreground" aria-hidden="true" d="" pointer-events="none" display="none"/></g></g></g><path class="foreground" aria-hidden="true" d="" display="none"/></g></g></g></svg>