<svg xmlns="http://www.w3.org/2000/svg" xmlns:xlink="http://www.w3.org/1999/xlink" version="1.1" class="marks" width="441" height="420" viewBox="0 0 441 420"><rect width="441" height="420" fill="#202025"/><g fill="none" stroke-miterlimit="10" transform="translate(21,7)"><g class="mark-group role-frame root" role="graphics-object" aria-roledescription="group mark container"><g transform="translate(0,0)"><path class="background" aria-hidden="true" d="M0,0h400v400h-400Z" stroke="#ddd" stroke-width="0"/><g><g class="mark-line role-mark layer_0_layer_0_marks" role="graphics-object" aria-roledescription="line mark container"><path aria-label="order: 1; x: 1; y: 0" role="graphics-symbol" aria-roledescription="line mark" d="M400,400L200,15.1L0,400L400,400" stroke="#4c78a8" stroke-width="2"/></g><g class="mark-symbol role-mark layer_0_layer_1_marks" role="graphics-object" aria-roledescription="symbol mark container"><path aria-label="order: 1; x: 1; y: 0" role="graphics-symbol" aria-roledescription="point" transform="translate(400,400)" d="M2.739,0A2.739,2.739,0,1,1,-2.739,0A2.739,2.739,0,1,1,2.739,0" fill="#4c78a8" stroke-width="2" opacity="1"/><path aria-label="order: 2; x: 0.5; y: 0.866025403784" role="graphics-symbol" aria-roledescription="point" transform="translate(200,15.099820540249542)" d="M2.739,0A2.739,2.739,0,1,1,-2.739,0A2.739,2.739,0,1,1,2.739,0" fill="#4c78a8" stroke-width="2" opacity="1"/><path aria-label="order: 3; x: 0; y: 0" role="graphics-symbol" aria-roledescription="point" transform="translate(0,400)" d="M2.739,0A2.739,2.739,0,1,1,-2.739,0A2.739,2.739,0,1,1,2.739,0" fill="#4c78a8" stroke-width="2" opacity="1"/><path aria-label="order: 4; x: 1; y: 0" role="graphics-symbol" aria-roledescription="point" transform="translate(400,400)" d="M2.739,0A2.739,2.739,0,1,1,-2.739,0A2.739,2.739,0,1,1,2.739,0" fill="#4c78a8" stroke-width="2" opacity="1"/></g><g class="mark-line role-mark layer_1_marks" role="graphics-object" aria-roledescription="line mark container"><path aria-label="order: 0; x: 0.5; y: 0.288675134595" role="graphics-symbol" aria-roledescription="line mark" d="M200,271.7L200,281.751L208.135,286.561L208.451,297.109L208.451,297.109L216.196,301.269L224.662,297.404L233.412,293.408L226.785,289.168L235.586,284.867L236.97,295.36L236.97,295.36L238.398,306.188L228.576,310.053L228.576,310.053L235.456,313.663L242.046,317.121L251.435,313.907L261.115,310.592L258.558,298.233L256.134,286.512L258.316,297.059L263.975,301.171L263.975,301.171L252.842,305.339L258.721,309.121L247.912,312.918L253.989,316.397L259.815,319.733L265.401,322.932L265.401,322.932L270.759,325.999L267.746,312.764L277.899,309.456L282.755,313.057L278.038,309.558L278.038,309.558L281.017,320.802L285.744,323.948L290.278,326.966L294.629,329.863L298.805,332.642L294.719,329.922L294.719,329.922L298.247,341.649L298.247,341.649L301.827,353.548L305.71,355.385L309.411,367.3L312.988,368.591L309.463,367.318L309.463,367.318L309.463,367.318L321.002,366.1L321.002,366.1L324.119,367.437L324.119,367.437L324.119,367.437L327.112,368.721L324.155,367.452L324.155,367.452L324.155,367.452L327.146,368.736L327.146,368.736L330.019,369.969L334.219,381.433L336.81,382.165L339.299,382.867L339.299,382.867L341.688,383.542L341.688,383.542L341.688,383.542L343.984,384.189L343.984,384.189L343.984,384.189L343.984,384.189L346.188,384.812L348.306,385.409L348.306,385.409L350.34,385.983L352.293,386.535L352.293,386.535L354.169,387.064L355.972,387.573L355.972,387.573L355.972,387.573L355.972,387.573L357.703,388.062L357.703,388.062L359.366,388.531L359.366,388.531L360.963,388.982L362.498,389.415L363.971,389.831L363.971,389.831L345.824,390.338L347.956,390.718L350.003,391.083L351.969,391.434L351.969,391.434L351.969,391.434L351.969,391.434L351.969,391.434L351.969,391.434L350.015,391.085L350.015,391.085L351.981,391.436L353.869,391.773L355.683,392.096L357.426,392.407L359.099,392.706L359.099,392.706L359.099,392.706L360.707,392.992L362.251,393.268L363.735,393.532L365.16,393.786L365.16,393.786L366.529,394.031L367.844,394.265L367.844,394.265L369.107,394.49L369.107,394.49L369.107,394.49L380.71,394.317L381.467,394.54L382.195,394.755L382.894,394.96L383.565,395.158L384.21,395.348L384.21,395.348L384.83,395.531L384.83,395.531L385.425,395.706L385.997,395.875L386.547,396.037L387.075,396.192L387.582,396.342L388.069,396.485L388.537,396.623L388.987,396.756L389.419,396.883L389.834,397.005L389.834,397.005L390.233,397.123L389.835,397.005L390.234,397.123L390.234,397.123L390.617,397.236L390.617,397.236L390.617,397.236L390.985,397.344L391.339,397.448L391.339,397.448L391.678,397.548L391.678,397.548L391.678,397.548L391.678,397.548L392.005,397.645L392.318,397.737L392.318,397.737L392.005,397.645L392.005,397.645L392.319,397.737L392.319,397.737L392.319,397.737L392.319,397.737L392.62,397.826L392.909,397.911L393.188,397.993L393.455,398.072L393.712,398.147L393.958,398.22L393.712,398.147L393.958,398.22L393.958,398.22L393.958,398.22L394.195,398.29L394.423,398.357L394.642,398.421L394.642,398.421L394.852,398.483L394.852,398.483L395.054,398.543L395.248,398.6L395.434,398.655L395.434,398.655L395.248,398.6L395.054,398.543L395.248,398.6L395.434,398.655L395.614,398.708L395.786,398.758L395.951,398.807L395.951,398.807L396.11,398.854L396.262,398.899L396.262,398.899L396.262,398.899L396.409,398.942L396.55,398.984L396.685,399.023L396.815,399.062L396.815,399.062L396.815,399.062L396.815,399.062L396.94,399.098L397.06,399.134L397.175,399.168L397.175,399.168L397.175,399.168L397.286,399.2L397.286,399.2L397.392,399.232L397.495,399.262L397.593,399.291L397.593,399.291L397.687,399.319L397.687,399.319L397.687,399.319L397.687,399.319L397.778,399.345L397.778,399.345L397.865,399.371L397.949,399.396L397.949,399.396L398.029,399.419L398.029,399.419L398.107,399.442L398.181,399.464L398.252,399.485L398.321,399.505L398.387,399.525L398.387,399.525L398.45,399.543L398.45,399.543L398.387,399.525L398.45,399.543L398.45,399.543L398.511,399.561L398.569,399.578L398.511,399.561L398.569,399.578L398.569,399.578L398.625,399.595L398.679,399.611L398.625,399.595L398.679,399.611L398.731,399.626L398.731,399.626L398.781,399.641L398.828,399.655L398.874,399.668L398.919,399.681L398.919,399.681L398.919,399.681L398.919,399.681L398.874,399.668L398.919,399.681L398.919,399.681L398.961,399.694L398.961,399.694L398.961,399.694L398.961,399.694L399.002,399.706L399.041,399.717L399.078,399.729L399.115,399.739L399.078,399.729L399.115,399.739L399.115,399.739L399.149,399.749L399.149,399.749L399.149,399.749L399.183,399.759L399.183,399.759L399.183,399.759L399.183,399.759L399.183,399.759L399.215,399.769L399.246,399.778L399.275,399.786L399.304,399.795L399.304,399.795L399.304,399.795L399.331,399.803L399.357,399.811L399.382,399.818L399.382,399.818L399.382,399.818L399.357,399.811L399.382,399.818L399.407,399.825L399.407,399.825L399.407,399.825L399.43,399.832L399.452,399.839L399.452,399.839L399.452,399.839L399.474,399.845" stroke="red" stroke-width="2"/></g><g class="mark-symbol role-mark layer_2_marks" role="graphics-object" aria-roledescription="symbol mark container"><path aria-label="x: 0.5; y: 0.288675134595" role="graphics-symbol" aria-roledescription="point" transform="translate(200,271.69994018008316)" d="M2.5,0A2.5,2.5,0,1,1,-2.5,0A2.5,2.5,0,1,1,2.5,0" stroke="white" stroke-width="2" opacity="0.7"/></g><g class="mark-text role-mark layer_3_marks" role="graphics-object" aria-roledescription="text mark container"><text aria-label="action: R; start: 0; end: 0" role="graphics-symbol" aria-roledescription="text mark" text-anchor="end" transform="translate(-5,405)" font-family="sans-serif" font-size="15px" fill="white">R</text></g><g class="mark-text role-mark layer_4_marks" role="graphics-object" aria-roledescription="text mark container"><text aria-label="action: P; start: 1; end: 0" role="graphics-symbol" aria-roledescription="text mark" text-anchor="start" transform="translate(405,405)" font-family="sans-serif" font-size="15px" fill="white">P</text></g><g class="mark-text role-mark layer_5_marks" role="graphics-object" aria-roledescription="text mark container"><text aria-label="action: S; start: 0.5; end: 0.866025403784" role="graphics-symbol" aria-roledescription="text mark" text-anchor="middle" transform="translate(200,10.099820540249542)" font-family="sans-serif" font-size="15px" fill="white">S</text></g><g class="mark-text role-mark layer_6_marks" role="graphics-object" aria-roledescription="text mark container"><text aria-label="action: Initial Policy; start: 0.333333333333; end: 0.333333333333" role="graphics-symbol" aria-roledescription="text mark" text-anchor="start" transform="translate(143.33333333333331,267.85185185185185)" font-family="sans-serif" font-size="8px" fill="white">Initial Policy</text></g></g><path class="foreground" aria-hidden="true" d="" display="none"/></g></g></g></svg>